<svg xmlns="http://www.w3.org/2000/svg" viewBox="0 0 550 165"><rect width="550" height="165" fill="#FFF"/><path fill="#008990" d="m119.23 72.71-9.34 4.91c-8 4.09-15.59 7.69-19.68 8.84-10.79 3.11-23.93 5-28.65.79-4.44-3.94 5.81-20.44 25.2-24.11a16.11 16.11 0 0 1 5-.5s-1.34-5.64-2.38-6.83a4.79 4.79 0 0 0-5-1.87c-4.2.25-22.06 5-29.1 19.89-3.93 8.45 1.29 17 4.67 19.46 1.58 1.15 11.72 10.24 35.16 1 23.11-9 43.8-23.08 43.82-23.08v-9.39s-9.1 5.18-19.7 10.89z"/><path fill="#e2001a" d="M139 58.13s-12.33 7.08-15.22 8.15c-2.65 1-3.64-.33-4-.82a34.51 34.51 0 0 1-2-5.22 5.47 5.47 0 0 0 2.33-.25c1.88-.47 18.88-10 18.9-10v8.12z"/><path fill="#006449" d="m475.16 99.8 1.93-2.8a15.52 15.52 0 0 0 8.91 2.72c3.07 0 5.58-.92 5.58-2.35s-2.79-2.07-6-2.76c-4.42-.94-9.67-2-9.67-5.91 0-3.59 4.48-5.83 9.58-5.83 3.48-.04 6.9.93 9.84 2.79l-1.94 2.79a13.2 13.2 0 0 0-7.82-2.45c-2.76 0-5.42.86-5.42 2.24s2.55 1.82 5.58 2.43c4.51.91 10.08 2 10.08 6.24 0 3.81-4.58 6-9.77 6a20.39 20.39 0 0 1-10.88-3.11zM454 97V83.2h17.51v3.09h-13.42V91h12.26v3h-12.26v3c0 1.69.8 2.49 2.43 2.49h11.33v3.09h-12.32C456 102.53 454 100.46 454 97zm-12.61-14.13c3.08 0 6.1.95 8.61 2.73l-1.93 2.52a10.33 10.33 0 0 0-6.44-2.24c-4.55 0-8.12 2.84-8.12 7s3.57 7 8.12 7c2.46 0 4.85-.83 6.8-2.34l1.93 2.51a15.7 15.7 0 0 1-9 2.84c-6.27 0-12.18-3.7-12.18-10s5.94-10.02 12.21-10.02zm-20.61.33h4.15v19.33h-4.15zm-3.72 0-9.61 19.33h-4.23l-9.61-19.33h4.75l7.24 15.27 7.23-15.27zm-44.99 0h10.47c4.86 0 8.81 2 8.81 6.21 0 3.32-2.43 5.06-5.72 5.8l6.33 7.32h-4.83l-5.75-6.74h-5.16v6.74h-4.15zm10.17 9.58c2.92 0 4.8-1.21 4.8-3.31s-1.79-3.18-4.83-3.18h-6v6.49zM349.35 97V83.2h17.51v3.09h-13.37V91h12.26v3h-12.26v3c0 1.69.8 2.49 2.43 2.49h11.32v3.09h-12.31c-3.54-.05-5.58-2.12-5.58-5.58zM325 99.8l1.9-2.8a15.5 15.5 0 0 0 8.89 2.71c3.07 0 5.58-.92 5.58-2.35s-2.79-2.07-6-2.76c-4.41-.94-9.66-2-9.66-5.91 0-3.59 4.47-5.83 9.58-5.83 3.48-.04 6.89.93 9.83 2.79l-1.93 2.79a13.21 13.21 0 0 0-7.82-2.44c-2.76 0-5.41.86-5.41 2.24s2.54 1.82 5.58 2.43c4.5.91 10.08 2 10.08 6.24 0 3.81-4.58 6-9.78 6-3.83 0-7.59-1.08-10.84-3.11zm-29.53-13.51V83.2h19v3.09H307v16.24h-4.1V86.29zm-19.99 2.46v13.78h-4.14V83.2h4.14L287.33 97V83.2h4.14v19.33h-4.14zM248.61 97V83.2h17.51v3.09h-13.37V91H265v3h-12.25v3c0 1.69.8 2.49 2.43 2.49h11.33v3.09h-12.32c-3.54-.05-5.58-2.12-5.58-5.58zm-9.53-13.8h4.42v19.33h-4.14V88.12l-7.68 10.8-7.45-10.47v14.08h-3.59V83.2h4.42l7 9.83zm-31.84 11.71v7.62h-4.14v-7.62l-9.69-11.71h5.13l6.88 8.59 6.88-8.59h4.61zm-17.45 2.96h-10.66l-2.32 4.66h-4.22l10-19.33h4.23l10 19.33h-4.75zm-1.52-3-3.81-7.68-3.81 7.68zM153 83.2h10.58c5 0 9 2.13 9 6.68s-4 6.83-9 6.83h-6.44v5.82H153zm10.44 10.41c3 0 4.86-1.38 4.86-3.73s-1.82-3.59-4.89-3.59h-6.27v7.32zm278.99-25.09V54.77h17.51v3.09h-13.37v4.67h12.27v3h-12.27v3A2.17 2.17 0 0 0 449 71h11.32v3.1H448c-3.52 0-5.57-2.1-5.57-5.58zM423 54.77h4.14V71h12.26v3.1H423zm-28.78 9.66c0-5.46 5.08-10 12.23-10s12.24 4.53 12.24 10-5.08 10-12.24 10-12.23-4.53-12.23-10zm4.31 0c0 3.9 3.23 7 7.92 7s7.93-3.09 7.93-7-3.23-7-7.93-7-7.92 3.11-7.92 7zM383 54.44c3.09 0 6.1.95 8.62 2.73l-1.93 2.51a10.38 10.38 0 0 0-6.44-2.23c-4.55 0-8.12 2.84-8.12 7s3.57 7 8.12 7c2.46 0 4.86-.83 6.8-2.35l1.95 2.49a15.73 15.73 0 0 1-9 2.84c-6.26 0-12.17-3.7-12.17-10s5.94-9.99 12.17-9.99zm-20.57.33h4.15V74.1h-4.15zm-24.16 0h10.47c4.86 0 8.81 2 8.81 6.21 0 3.32-2.43 5.06-5.72 5.8l6.33 7.32h-4.84l-5.74-6.74h-5.17v6.74h-4.14zm10.17 9.58c2.92 0 4.8-1.21 4.8-3.31s-1.79-3.18-4.83-3.18h-6v6.49zm-25-9.91c3.09 0 6.1.95 8.62 2.73l-1.93 2.51a10.38 10.38 0 0 0-6.44-2.23c-4.55 0-8.12 2.79-8.12 6.93s3.18 7 8 7c1.91.04 3.8-.46 5.43-1.45v-3.7h-5.8v-3h10v8.12c-2.86 2-6.29 3.05-9.78 3-7.29 0-12.12-4.31-12.12-10-.03-6.27 5.88-9.91 12.14-9.91zm-20.35 14.99h-10.66l-2.32 4.67h-4.22l10-19.33h4.23l10 19.33h-4.75zm-1.52-3-3.81-7.68-3.76 7.67zm-44.9-8.57v-3.09h19v3.09h-7.43V74.1h-4.14V57.86zm-8.14-3.09h4.14V74.1h-4.14zm-25.44 0h8.73c7.46 0 12.43 3.86 12.43 9.66s-5 9.67-12.43 9.67h-8.73zm9 16.24c4.69 0 7.84-2.63 7.84-6.55s-3.15-6.6-7.84-6.6h-4.86V71zm-31.73-2.49V54.77h17.52v3.09h-13.37v4.67h12.26v3h-12.26v3c0 1.69.8 2.49 2.43 2.49h11.32v3.08h-12.32c-3.53 0-5.58-2.1-5.58-5.58zm13.34-19.28-3.2 3.4H207l2.43-3.4zm-36.81 5.53h10.47c4.86 0 8.81 2 8.81 6.21 0 3.32-2.43 5.06-5.72 5.8l6.33 7.32H192l-5.75-6.74H181v6.74h-4.15zm10.17 9.58c2.92 0 4.8-1.21 4.8-3.31s-1.79-3.18-4.83-3.18h-6v6.49zm-23.14-9.91c3.08 0 6.1.95 8.61 2.73l-1.93 2.51a10.38 10.38 0 0 0-6.44-2.23c-4.55 0-8.11 2.84-8.11 7s3.56 7 8.11 7c2.46 0 4.86-.83 6.8-2.35l1.93 2.52a15.7 15.7 0 0 1-9 2.84c-6.27 0-12.18-3.7-12.18-10s5.94-10.02 12.21-10.02zm-50.75 31.79c.86 2 3.35 7.94 4 9.64a3.33 3.33 0 0 0 2.9 1.86h10.78l-8-16.64a314 314 0 0 1-9.68 5.14zm-8.57-21.85 5.29 13.24 9.34-4.91-8.09-17.94H99.37L82.83 85.63s8.14-.25 13.34-4.18c1.32-.77 5-10.52 8.43-17.07zm-49.83 38.15h78.37v7.01H54.77z"/></svg>