<?xml version="1.0" encoding="UTF-8" standalone="no"?><svg xmlns="http://www.w3.org/2000/svg" xmlns:xlink="http://www.w3.org/1999/xlink" contentStyleType="text/css" height="580.8567px" preserveAspectRatio="none" style="width:696px;height:580px;background:#FFFFFF;" version="1.1" viewBox="0 0 696 580" width="696.514px" zoomAndPan="magnify"><defs/><g><!--MD5=[ee55a0b25e08f727e516fac9160d5e85]
cluster classique--><g id="cluster_classique"><rect fill="#FFFFFF" height="354.6824" rx="2.1418" ry="2.1418" style="stroke:#000000;stroke-width:1.2850812407680945;" width="332.4077" x="5.997" y="5.997"/><text fill="#000000" font-family="sans-serif" font-size="11.9941" font-weight="bold" lengthAdjust="spacing" textLength="149.0694" x="97.6662" y="18.8437">Classique : en couche</text></g><!--MD5=[1be783dd002b1f1485deb22bb6950fab]
cluster classique.API--><g id="cluster_classique.API"><rect fill="#FFFFFF" height="71.1078" rx="2.1418" ry="2.1418" style="stroke:#000000;stroke-width:1.2850812407680945;" width="167.9173" x="88.2422" y="42.836"/><text fill="#000000" font-family="sans-serif" font-size="11.9941" font-weight="bold" lengthAdjust="spacing" textLength="22.2747" x="161.0635" y="55.6827">API</text></g><!--MD5=[b02403d05df38818bfa022f93cba2339]
cluster classique.Domaine--><g id="cluster_classique.Domaine"><rect fill="#FFFFFF" height="71.1078" rx="2.1418" ry="2.1418" style="stroke:#000000;stroke-width:1.2850812407680945;" width="111.3737" x="116.514" y="155.9232"/><text fill="#000000" font-family="sans-serif" font-size="11.9941" font-weight="bold" lengthAdjust="spacing" textLength="59.9705" x="142.2157" y="168.7698">Domaine</text></g><!--MD5=[e8e9c607e36e7589ea729fa379908e68]
cluster classique.Persistance--><g id="cluster_classique.Persistance"><rect fill="#FFFFFF" height="71.1078" rx="2.1418" ry="2.1418" style="stroke:#000000;stroke-width:1.2850812407680945;" width="291.2851" x="26.5583" y="269.0103"/><text fill="#000000" font-family="sans-serif" font-size="11.9941" font-weight="bold" lengthAdjust="spacing" textLength="81.3885" x="131.5066" y="281.857">Persistance</text></g><!--MD5=[13c2d36e5d15e5852a8852d273f1a3fe]
cluster hex--><g id="cluster_hex"><rect fill="#FFFFFF" height="569.7194" rx="2.1418" ry="2.1418" style="stroke:#000000;stroke-width:1.2850812407680945;" width="332.4077" x="358.966" y="5.997"/><text fill="#000000" font-family="sans-serif" font-size="11.9941" font-weight="bold" lengthAdjust="spacing" textLength="145.6425" x="452.3486" y="18.8437">Centrée sur le métier</text></g><!--MD5=[fac864e77539af95038f0151207ed802]
cluster API--><g id="cluster_API"><rect fill="#FFFFFF" height="71.1078" rx="2.1418" ry="2.1418" style="stroke:#000000;stroke-width:1.2850812407680945;" width="167.9173" x="441.2112" y="42.836"/><text fill="#000000" font-family="sans-serif" font-size="11.9941" font-weight="bold" lengthAdjust="spacing" textLength="22.2747" x="514.0325" y="55.6827">API</text></g><!--MD5=[81d8fddc0472df4f6601fb2b1deb463c]
cluster Domaine--><g id="cluster_Domaine"><path d="M430.0739,305.8493 L453.8479,155.9232 L596.4919,155.9232 L620.2659,305.8493 L596.4919,455.7755 L453.8479,455.7755 L430.0739,305.8493 " fill="#FFFFFF" style="stroke:#181818;stroke-width:0.8567208271787297;"/><text fill="#000000" font-family="sans-serif" font-size="11.9941" font-weight="bold" lengthAdjust="spacing" textLength="59.9705" x="495.1846" y="168.7698">Domaine</text></g><!--MD5=[c5d177b2fa847c48384a4f399638f91d]
cluster Persistance--><g id="cluster_Persistance"><rect fill="#FFFFFF" height="71.1078" rx="2.1418" ry="2.1418" style="stroke:#000000;stroke-width:1.2850812407680945;" width="291.2851" x="379.5273" y="484.0473"/><text fill="#000000" font-family="sans-serif" font-size="11.9941" font-weight="bold" lengthAdjust="spacing" textLength="81.3885" x="484.4756" y="496.8939">Persistance</text></g><!--MD5=[dc1e052cdb3166dc54836dd9fa5d7256]
class classique.API.CourtageResource--><g id="elem_classique.API.CourtageResource"><rect codeLine="9" fill="#F1F1F1" height="27.4151" id="classique.API.CourtageResource" rx="2.1418" ry="2.1418" style="stroke:#181818;stroke-width:0.42836041358936483;" width="140.5022" x="101.9498" y="72.8213"/><ellipse cx="114.8006" cy="86.5288" fill="#ADD1B2" rx="9.4239" ry="9.4239" style="stroke:#181818;stroke-width:0.8567208271787297;"/><path d="M116.8085,82.8208 C116.0054,82.446 115.4967,82.3255 114.747,82.3255 C112.4982,82.3255 110.7847,84.1059 110.7847,86.4351 L110.7847,87.3989 C110.7847,89.6076 112.5919,91.2274 115.0683,91.2274 C116.1124,91.2274 117.103,90.973 117.7456,90.5045 C118.2409,90.1565 118.522,89.7683 118.522,89.4336 C118.522,89.0454 118.1873,88.7108 117.7857,88.7108 C117.5983,88.7108 117.4243,88.7777 117.2637,88.9383 C116.8755,89.3533 116.8755,89.3533 116.7148,89.4336 C116.3534,89.6612 115.7644,89.7683 115.1085,89.7683 C113.3549,89.7683 112.2438,88.8312 112.2438,87.3721 L112.2438,86.4351 C112.2438,84.9091 113.3147,83.7846 114.8006,83.7846 C115.2959,83.7846 115.8179,83.9185 116.2195,84.1327 C116.6345,84.3736 116.7818,84.561 116.8621,84.9091 C116.9156,85.2571 116.9424,85.3642 117.0629,85.4713 C117.1833,85.5918 117.3841,85.6855 117.5715,85.6855 C117.7991,85.6855 118.0267,85.565 118.1739,85.3776 C118.2676,85.2437 118.2944,85.0831 118.2944,84.7217 L118.2944,83.5035 C118.2944,83.1287 118.281,83.0216 118.2007,82.8877 C118.0668,82.6602 117.8259,82.5397 117.5715,82.5397 C117.3172,82.5397 117.1432,82.62 116.9558,82.8877 L116.8085,82.8208 Z " fill="#000000"/><text fill="#000000" font-family="sans-serif" font-size="11.9941" lengthAdjust="spacing" textLength="113.0871" x="126.7947" y="90.6811">CourtageResource</text></g><!--MD5=[ce94497de865509cef312059b367c0fa]
class classique.Domaine.Courtage--><g id="elem_classique.Domaine.Courtage"><rect codeLine="12" fill="#F1F1F1" height="27.4151" id="classique.Domaine.Courtage" rx="2.1418" ry="2.1418" style="stroke:#181818;stroke-width:0.42836041358936483;" width="83.9586" x="130.2216" y="185.9084"/><ellipse cx="143.0724" cy="199.616" fill="#ADD1B2" rx="9.4239" ry="9.4239" style="stroke:#181818;stroke-width:0.8567208271787297;"/><path d="M145.0803,195.908 C144.2771,195.5331 143.7685,195.4127 143.0188,195.4127 C140.7699,195.4127 139.0565,197.193 139.0565,199.5222 L139.0565,200.4861 C139.0565,202.6948 140.8636,204.3145 143.3401,204.3145 C144.3842,204.3145 145.3748,204.0602 146.0174,203.5917 C146.5126,203.2436 146.7938,202.8554 146.7938,202.5208 C146.7938,202.1326 146.4591,201.7979 146.0575,201.7979 C145.8701,201.7979 145.6961,201.8648 145.5355,202.0255 C145.1472,202.4405 145.1472,202.4405 144.9866,202.5208 C144.6252,202.7483 144.0362,202.8554 143.3803,202.8554 C141.6267,202.8554 140.5156,201.9184 140.5156,200.4593 L140.5156,199.5222 C140.5156,197.9962 141.5865,196.8718 143.0724,196.8718 C143.5677,196.8718 144.0897,197.0056 144.4913,197.2198 C144.9063,197.4608 145.0535,197.6482 145.1339,197.9962 C145.1874,198.3443 145.2142,198.4513 145.3347,198.5584 C145.4551,198.6789 145.6559,198.7726 145.8433,198.7726 C146.0709,198.7726 146.2985,198.6521 146.4457,198.4647 C146.5394,198.3309 146.5662,198.1702 146.5662,197.8088 L146.5662,196.5907 C146.5662,196.2158 146.5528,196.1088 146.4725,195.9749 C146.3386,195.7473 146.0977,195.6268 145.8433,195.6268 C145.589,195.6268 145.415,195.7072 145.2276,195.9749 L145.0803,195.908 Z " fill="#000000"/><text fill="#000000" font-family="sans-serif" font-size="11.9941" lengthAdjust="spacing" textLength="56.5436" x="155.0665" y="203.7682">Courtage</text></g><!--MD5=[1675684cebcea517a5194610cad16d7b]
class classique.Persistance.PortefeuilleRepositorySpringDataImpl--><g id="elem_classique.Persistance.PortefeuilleRepositorySpringDataImpl"><rect codeLine="15" fill="#F1F1F1" height="27.4151" id="classique.Persistance.PortefeuilleRepositorySpringDataImpl" rx="2.1418" ry="2.1418" style="stroke:#181818;stroke-width:0.42836041358936483;" width="263.87" x="40.2659" y="298.9956"/><ellipse cx="53.1167" cy="312.7031" fill="#ADD1B2" rx="9.4239" ry="9.4239" style="stroke:#181818;stroke-width:0.8567208271787297;"/><path d="M55.1246,308.9951 C54.3215,308.6203 53.8128,308.4998 53.0631,308.4998 C50.8143,308.4998 49.1008,310.2802 49.1008,312.6094 L49.1008,313.5732 C49.1008,315.7819 50.908,317.4017 53.3844,317.4017 C54.4285,317.4017 55.4191,317.1473 56.0617,316.6788 C56.557,316.3308 56.8381,315.9426 56.8381,315.6079 C56.8381,315.2197 56.5034,314.8851 56.1018,314.8851 C55.9144,314.8851 55.7404,314.952 55.5798,315.1126 C55.1916,315.5276 55.1916,315.5276 55.0309,315.6079 C54.6695,315.8355 54.0805,315.9426 53.4246,315.9426 C51.671,315.9426 50.5599,315.0055 50.5599,313.5464 L50.5599,312.6094 C50.5599,311.0834 51.6308,309.9589 53.1167,309.9589 C53.612,309.9589 54.134,310.0928 54.5356,310.307 C54.9506,310.5479 55.0979,310.7353 55.1782,311.0834 C55.2317,311.4314 55.2585,311.5385 55.379,311.6456 C55.4994,311.7661 55.7002,311.8598 55.8876,311.8598 C56.1152,311.8598 56.3428,311.7393 56.49,311.5519 C56.5837,311.418 56.6105,311.2574 56.6105,310.896 L56.6105,309.6778 C56.6105,309.303 56.5971,309.1959 56.5168,309.062 C56.3829,308.8345 56.142,308.714 55.8876,308.714 C55.6333,308.714 55.4593,308.7943 55.2719,309.062 L55.1246,308.9951 Z " fill="#000000"/><text fill="#000000" font-family="sans-serif" font-size="11.9941" lengthAdjust="spacing" textLength="236.4549" x="65.1108" y="316.8554">PortefeuilleRepositorySpringDataImpl</text></g><!--MD5=[e6bae807ee1954862a3f201b633ae692]
class CourtageResource--><g id="elem_CourtageResource"><rect codeLine="22" fill="#F1F1F1" height="27.4151" id="CourtageResource" rx="2.1418" ry="2.1418" style="stroke:#181818;stroke-width:0.42836041358936483;" width="140.5022" x="454.9188" y="72.8213"/><ellipse cx="467.7696" cy="86.5288" fill="#ADD1B2" rx="9.4239" ry="9.4239" style="stroke:#181818;stroke-width:0.8567208271787297;"/><path d="M469.7775,82.8208 C468.9743,82.446 468.4657,82.3255 467.716,82.3255 C465.4671,82.3255 463.7537,84.1059 463.7537,86.4351 L463.7537,87.3989 C463.7537,89.6076 465.5608,91.2274 468.0373,91.2274 C469.0814,91.2274 470.072,90.973 470.7145,90.5045 C471.2098,90.1565 471.491,89.7683 471.491,89.4336 C471.491,89.0454 471.1563,88.7108 470.7547,88.7108 C470.5673,88.7108 470.3933,88.7777 470.2326,88.9383 C469.8444,89.3533 469.8444,89.3533 469.6838,89.4336 C469.3224,89.6612 468.7334,89.7683 468.0775,89.7683 C466.3239,89.7683 465.2128,88.8312 465.2128,87.3721 L465.2128,86.4351 C465.2128,84.9091 466.2837,83.7846 467.7696,83.7846 C468.2649,83.7846 468.7869,83.9185 469.1885,84.1327 C469.6035,84.3736 469.7507,84.561 469.8311,84.9091 C469.8846,85.2571 469.9114,85.3642 470.0319,85.4713 C470.1523,85.5918 470.3531,85.6855 470.5405,85.6855 C470.7681,85.6855 470.9957,85.565 471.1429,85.3776 C471.2366,85.2437 471.2634,85.0831 471.2634,84.7217 L471.2634,83.5035 C471.2634,83.1287 471.25,83.0216 471.1697,82.8877 C471.0358,82.6602 470.7949,82.5397 470.5405,82.5397 C470.2862,82.5397 470.1122,82.62 469.9248,82.8877 L469.7775,82.8208 Z " fill="#000000"/><text fill="#000000" font-family="sans-serif" font-size="11.9941" lengthAdjust="spacing" textLength="113.0871" x="479.7637" y="90.6811">CourtageResource</text></g><!--MD5=[53b6e5c86f357ebf14fc9d20e6d0fbca]
class CourtageService--><g id="elem_CourtageService"><rect codeLine="25" fill="#F1F1F1" height="27.4151" id="CourtageService" rx="2.1418" ry="2.1418" style="stroke:#181818;stroke-width:0.42836041358936483;" width="129.3648" x="460.4874" y="185.9084"/><ellipse cx="473.3383" cy="199.616" fill="#B4A7E5" rx="9.4239" ry="9.4239" style="stroke:#181818;stroke-width:0.8567208271787297;"/><path d="M474.1548,196.8584 L475.6273,196.8584 C475.962,196.8584 476.1226,196.8316 476.2297,196.7647 C476.4573,196.6308 476.5777,196.3899 476.5777,196.1355 C476.5777,195.908 476.484,195.6804 476.2832,195.5331 C476.136,195.4394 476.0155,195.4127 475.6273,195.4127 L471.2232,195.4127 C470.8484,195.4127 470.7413,195.4261 470.6075,195.5064 C470.3933,195.6402 470.2594,195.8946 470.2594,196.1355 C470.2594,196.3765 470.3799,196.5907 470.5673,196.7379 C470.7012,196.8316 470.8618,196.8584 471.2232,196.8584 L472.6957,196.8584 L472.6957,202.4405 L471.2232,202.4405 C470.8484,202.4405 470.7413,202.4538 470.6075,202.5475 C470.3933,202.6814 470.2594,202.9224 470.2594,203.1767 C470.2594,203.3909 470.3799,203.6184 470.5673,203.7523 C470.7012,203.8594 470.8752,203.8996 471.2232,203.8996 L475.6273,203.8996 C476.2698,203.8996 476.5777,203.6586 476.5777,203.1767 C476.5777,202.9357 476.484,202.7216 476.2832,202.5743 C476.136,202.4672 476.0155,202.4405 475.6273,202.4405 L474.1548,202.4405 L474.1548,196.8584 Z " fill="#000000"/><text fill="#000000" font-family="sans-serif" font-size="11.9941" font-style="italic" lengthAdjust="spacing" textLength="101.9498" x="485.3323" y="203.7682">CourtageService</text></g><!--MD5=[8f24a0ae3e3eeca727ae9e78fab7990f]
class Courtage--><g id="elem_Courtage"><rect codeLine="26" fill="#F1F1F1" height="27.4151" id="Courtage" rx="2.1418" ry="2.1418" style="stroke:#181818;stroke-width:0.42836041358936483;" width="83.9586" x="483.1905" y="298.9956"/><ellipse cx="496.0414" cy="312.7031" fill="#ADD1B2" rx="9.4239" ry="9.4239" style="stroke:#181818;stroke-width:0.8567208271787297;"/><path d="M498.0493,308.9951 C497.2461,308.6203 496.7374,308.4998 495.9878,308.4998 C493.7389,308.4998 492.0255,310.2802 492.0255,312.6094 L492.0255,313.5732 C492.0255,315.7819 493.8326,317.4017 496.3091,317.4017 C497.3532,317.4017 498.3438,317.1473 498.9863,316.6788 C499.4816,316.3308 499.7627,315.9426 499.7627,315.6079 C499.7627,315.2197 499.4281,314.8851 499.0265,314.8851 C498.8391,314.8851 498.6651,314.952 498.5044,315.1126 C498.1162,315.5276 498.1162,315.5276 497.9556,315.6079 C497.5942,315.8355 497.0052,315.9426 496.3492,315.9426 C494.5956,315.9426 493.4846,315.0055 493.4846,313.5464 L493.4846,312.6094 C493.4846,311.0834 494.5555,309.9589 496.0414,309.9589 C496.5367,309.9589 497.0587,310.0928 497.4603,310.307 C497.8753,310.5479 498.0225,310.7353 498.1028,311.0834 C498.1564,311.4314 498.1832,311.5385 498.3036,311.6456 C498.4241,311.7661 498.6249,311.8598 498.8123,311.8598 C499.0399,311.8598 499.2674,311.7393 499.4147,311.5519 C499.5084,311.418 499.5352,311.2574 499.5352,310.896 L499.5352,309.6778 C499.5352,309.303 499.5218,309.1959 499.4415,309.062 C499.3076,308.8345 499.0667,308.714 498.8123,308.714 C498.558,308.714 498.384,308.7943 498.1965,309.062 L498.0493,308.9951 Z " fill="#000000"/><text fill="#000000" font-family="sans-serif" font-size="11.9941" lengthAdjust="spacing" textLength="56.5436" x="508.0355" y="316.8554">Courtage</text></g><!--MD5=[698309b2215fa8d18e9c50d85999959a]
class PortefeuilleRepository--><g id="elem_PortefeuilleRepository"><rect codeLine="27" fill="#F1F1F1" height="27.4151" id="PortefeuilleRepository" rx="2.1418" ry="2.1418" style="stroke:#181818;stroke-width:0.42836041358936483;" width="161.9202" x="444.2097" y="414.6529"/><ellipse cx="457.0606" cy="428.3604" fill="#B4A7E5" rx="9.4239" ry="9.4239" style="stroke:#181818;stroke-width:0.8567208271787297;"/><path d="M457.8771,425.6028 L459.3496,425.6028 C459.6843,425.6028 459.8449,425.5761 459.952,425.5091 C460.1796,425.3753 460.3,425.1343 460.3,424.88 C460.3,424.6524 460.2063,424.4249 460.0055,424.2776 C459.8583,424.1839 459.7378,424.1571 459.3496,424.1571 L454.9455,424.1571 C454.5707,424.1571 454.4636,424.1705 454.3298,424.2508 C454.1156,424.3847 453.9817,424.639 453.9817,424.88 C453.9817,425.1209 454.1022,425.3351 454.2896,425.4824 C454.4235,425.5761 454.5841,425.6028 454.9455,425.6028 L456.418,425.6028 L456.418,431.1849 L454.9455,431.1849 C454.5707,431.1849 454.4636,431.1983 454.3298,431.292 C454.1156,431.4259 453.9817,431.6668 453.9817,431.9212 C453.9817,432.1353 454.1022,432.3629 454.2896,432.4968 C454.4235,432.6039 454.5975,432.644 454.9455,432.644 L459.3496,432.644 C459.9922,432.644 460.3,432.4031 460.3,431.9212 C460.3,431.6802 460.2063,431.466 460.0055,431.3188 C459.8583,431.2117 459.7378,431.1849 459.3496,431.1849 L457.8771,431.1849 L457.8771,425.6028 Z " fill="#000000"/><text fill="#000000" font-family="sans-serif" font-size="11.9941" font-style="italic" lengthAdjust="spacing" textLength="134.5052" x="469.0547" y="432.5127">PortefeuilleRepository</text></g><!--MD5=[e29e418d7f9e45909fe0dffa0f12c198]
class PortefeuilleRepositorySpringDataImpl--><g id="elem_PortefeuilleRepositorySpringDataImpl"><rect codeLine="30" fill="#F1F1F1" height="27.4151" id="PortefeuilleRepositorySpringDataImpl" rx="2.1418" ry="2.1418" style="stroke:#181818;stroke-width:0.42836041358936483;" width="263.87" x="393.2349" y="514.0325"/><ellipse cx="406.0857" cy="527.74" fill="#ADD1B2" rx="9.4239" ry="9.4239" style="stroke:#181818;stroke-width:0.8567208271787297;"/><path d="M408.0936,524.032 C407.2904,523.6572 406.7818,523.5367 406.0321,523.5367 C403.7832,523.5367 402.0698,525.3171 402.0698,527.6463 L402.0698,528.6101 C402.0698,530.8189 403.8769,532.4386 406.3534,532.4386 C407.3975,532.4386 408.3881,532.1843 409.0306,531.7157 C409.5259,531.3677 409.8071,530.9795 409.8071,530.6448 C409.8071,530.2566 409.4724,529.922 409.0708,529.922 C408.8834,529.922 408.7094,529.9889 408.5487,530.1496 C408.1605,530.5645 408.1605,530.5645 407.9999,530.6448 C407.6385,530.8724 407.0495,530.9795 406.3936,530.9795 C404.64,530.9795 403.5289,530.0425 403.5289,528.5834 L403.5289,527.6463 C403.5289,526.1203 404.5998,524.9958 406.0857,524.9958 C406.581,524.9958 407.103,525.1297 407.5046,525.3439 C407.9196,525.5848 408.0668,525.7722 408.1472,526.1203 C408.2007,526.4683 408.2275,526.5754 408.348,526.6825 C408.4684,526.803 408.6692,526.8967 408.8566,526.8967 C409.0842,526.8967 409.3118,526.7762 409.459,526.5888 C409.5527,526.4549 409.5795,526.2943 409.5795,525.9329 L409.5795,524.7147 C409.5795,524.3399 409.5661,524.2328 409.4858,524.099 C409.3519,523.8714 409.111,523.7509 408.8566,523.7509 C408.6023,523.7509 408.4283,523.8312 408.2409,524.099 L408.0936,524.032 Z " fill="#000000"/><text fill="#000000" font-family="sans-serif" font-size="11.9941" lengthAdjust="spacing" textLength="236.4549" x="418.0798" y="531.8923">PortefeuilleRepositorySpringDataImpl</text></g><!--MD5=[2a9df3f4d6d01f79d5f467494279f0a3]
link classique.Domaine.Courtage to classique.Persistance.PortefeuilleRepositorySpringDataImpl--><g id="link_classique.Domaine.Courtage_classique.Persistance.PortefeuilleRepositorySpringDataImpl"><path codeLine="17" d="M172.2009,213.4666 C172.2009,233.5018 172.2009,271.9643 172.2009,294.4027 " fill="none" id="classique.Domaine.Courtage-to-classique.Persistance.PortefeuilleRepositorySpringDataImpl" style="stroke:#181818;stroke-width:0.8567208271787297;stroke-dasharray:7.0,7.0;"/><polygon fill="#181818" points="172.2009,298.9356,175.6278,291.2251,172.2009,294.652,168.774,291.2251,172.2009,298.9356" style="stroke:#181818;stroke-width:0.8567208271787297;"/><text fill="#000000" font-family="sans-serif" font-size="11.1374" lengthAdjust="spacing" textLength="31.6987" x="173.0576" y="251.9332">utilise</text></g><!--MD5=[932ea605a50e85d36a09195955e80a96]
link classique.API.CourtageResource to classique.Domaine.Courtage--><g id="link_classique.API.CourtageResource_classique.Domaine.Courtage"><path codeLine="18" d="M172.2009,100.3794 C172.2009,120.4147 172.2009,158.8772 172.2009,181.3155 " fill="none" id="classique.API.CourtageResource-to-classique.Domaine.Courtage" style="stroke:#181818;stroke-width:0.8567208271787297;stroke-dasharray:7.0,7.0;"/><polygon fill="#181818" points="172.2009,185.8484,175.6278,178.138,172.2009,181.5648,168.774,178.138,172.2009,185.8484" style="stroke:#181818;stroke-width:0.8567208271787297;"/><text fill="#000000" font-family="sans-serif" font-size="11.1374" lengthAdjust="spacing" textLength="31.6987" x="173.0576" y="138.8461">utilise</text></g><!--MD5=[2e85a60bcb31005ff7f14a45ef68c4a9]
link CourtageResource to CourtageService--><g id="link_CourtageResource_CourtageService"><path codeLine="32" d="M525.1699,100.3794 C525.1699,120.4147 525.1699,158.8772 525.1699,181.3155 " fill="none" id="CourtageResource-to-CourtageService" style="stroke:#181818;stroke-width:0.8567208271787297;stroke-dasharray:7.0,7.0;"/><polygon fill="#181818" points="525.1699,185.8484,528.5968,178.138,525.1699,181.5648,521.743,178.138,525.1699,185.8484" style="stroke:#181818;stroke-width:0.8567208271787297;"/><text fill="#000000" font-family="sans-serif" font-size="11.1374" lengthAdjust="spacing" textLength="31.6987" x="526.0266" y="138.8461">utilise</text></g><!--MD5=[7fe3fad12e01fd6bc603777e4762d91f]
reverse link CourtageService to Courtage--><g id="link_CourtageService_Courtage"><path codeLine="33" d="M525.1699,230.816 C525.1699,253.143 525.1699,282.3786 525.1699,298.9356 " fill="none" id="CourtageService-backto-Courtage" style="stroke:#181818;stroke-width:0.8567208271787297;stroke-dasharray:7.0,7.0;"/><polygon fill="none" points="519.1728,230.601,525.1699,213.4666,531.1669,230.601,519.1728,230.601" style="stroke:#181818;stroke-width:0.8567208271787297;"/></g><!--MD5=[3c496331fb430fc8ed0fed28d53632ce]
link Courtage to PortefeuilleRepository--><g id="link_Courtage_PortefeuilleRepository"><path codeLine="34" d="M525.1699,326.6308 C525.1699,347.2367 525.1699,387.2824 525.1699,410.2339 " fill="none" id="Courtage-to-PortefeuilleRepository" style="stroke:#181818;stroke-width:0.8567208271787297;stroke-dasharray:7.0,7.0;"/><polygon fill="#181818" points="525.1699,414.5852,528.5968,406.8747,525.1699,410.3016,521.743,406.8747,525.1699,414.5852" style="stroke:#181818;stroke-width:0.8567208271787297;"/><text fill="#000000" font-family="sans-serif" font-size="11.1374" lengthAdjust="spacing" textLength="31.6987" x="526.0266" y="385.5817">utilise</text></g><!--MD5=[38b9b33b43878a0db2359f8541ac5b33]
reverse link PortefeuilleRepository to PortefeuilleRepositorySpringDataImpl--><g id="link_PortefeuilleRepository_PortefeuilleRepositorySpringDataImpl"><path codeLine="35" d="M525.1699,459.719 C525.1699,477.9491 525.1699,500.1665 525.1699,513.9203 " fill="none" id="PortefeuilleRepository-backto-PortefeuilleRepositorySpringDataImpl" style="stroke:#181818;stroke-width:0.8567208271787297;stroke-dasharray:7.0,7.0;"/><polygon fill="none" points="519.1728,459.5236,525.1699,442.3892,531.1669,459.5236,519.1728,459.5236" style="stroke:#181818;stroke-width:0.8567208271787297;"/></g><!--MD5=[8b873ade0d3372c67906f05400245300]
@startuml
allowmixing
skinparam packageStyle rectangle
skinparam package.backgroundColor white
hide empty members
scale 580 height

namespace "Classique : en couche" as classique {
	namespace API {
		class CourtageResource
	}
	namespace Domaine {
		class Courtage
	}
	namespace Persistance {
		class PortefeuilleRepositorySpringDataImpl
	}
	classique.Domaine.Courtage ..>  classique.Persistance.PortefeuilleRepositorySpringDataImpl : utilise
	classique.API.CourtageResource ..> classique.Domaine.Courtage : utilise
}
package "Centrée sur le métier" as hex {
	package API {
		class CourtageResource
	}
	package Domaine <<Hexagon>> {
		interface CourtageService
		class Courtage
		interface PortefeuilleRepository
	}
	package Persistance {
		class PortefeuilleRepositorySpringDataImpl
	}
	CourtageResource ..> CourtageService : utilise
	CourtageService <|.. Courtage
	Courtage ..>  PortefeuilleRepository : utilise
	PortefeuilleRepository <|.. PortefeuilleRepositorySpringDataImpl
}
@enduml

PlantUML version 1.2022.4beta2(Unknown compile time)
(GPL source distribution)
Java Runtime: Java(TM) SE Runtime Environment
JVM: Java HotSpot(TM) 64-Bit Server VM
Default Encoding: UTF-8
Language: en
Country: US
--></g></svg>